<svg xmlns="http://www.w3.org/2000/svg" viewBox="0 0 959 593">
  <!-- simplified from http://en.wikipedia.org/wiki/File%3aBlank_US_Map.svg -->
  <style>
    path { fill:#d3d3d3; stroke:#fff; stroke-width:0.75; stroke-miterlimit:4 }
  </style>
  <path id="HI" d="M 233.1,519.3 L 235.0,515.8 L 237.3,515.4 L 237.6,516.2 L 235.5,519.3 L 233.1,519.3 z M 243.3,515.6 L 249.4,518.2 L 251.5,517.9 L 253.1,514.0 L 252.5,510.6 L 248.3,510.1 L 244.2,511.9 L 243.3,515.6 z M 274.0,525.6 L 277.7,531.1 L 280.1,530.8 L 281.3,530.3 L 282.7,531.6 L 286.4,531.4 L 287.4,530.0 L 284.5,528.2 L 282.6,524.5 L 280.5,520.9 L 274.6,523.8 L 274.0,525.6 z M 294.2,534.5 L 295.5,532.6 L 300.2,533.5 L 300.8,533.1 L 307.0,533.7 L 306.6,535.0 L 304.1,536.4 L 299.7,536.1 L 294.2,534.5 z M 299.5,539.7 L 301.5,543.6 L 304.5,542.4 L 304.9,540.8 L 303.2,538.7 L 299.5,538.4 L 299.5,539.7 z M 306.5,538.5 L 308.7,535.6 L 313.4,538.1 L 317.8,539.2 L 322.2,541.9 L 322.2,543.9 L 318.6,545.7 L 313.8,546.6 L 311.3,545.2 L 306.5,538.5 z M 323.1,554.1 L 324.7,552.8 L 328.1,554.4 L 335.7,557.9 L 339.1,560.0 L 340.8,562.5 L 342.7,566.8 L 346.7,569.4 L 346.4,570.7 L 342.5,574.0 L 338.3,575.4 L 336.9,574.8 L 333.8,576.5 L 331.4,579.8 L 329.1,582.7 L 327.3,582.5 L 323.8,579.9 L 323.5,575.4 L 324.1,573.0 L 322.5,567.3 L 320.4,565.5 L 320.2,563.0 L 322.5,562.0 L 324.6,558.9 L 325.1,557.9 L 323.5,556.2 L 323.1,554.1 z" />
  <path id="AK" d="M 158.1,453.7 L 157.8,539.0 L 159.4,540.0 L 162.4,540.2 L 163.9,539.0 L 166.5,539.0 L 166.6,541.9 L 173.6,548.7 L 174.1,551.3 L 177.5,549.4 L 178.1,549.2 L 178.4,546.1 L 179.9,544.5 L 181.0,544.4 L 183.0,542.9 L 186.0,545.0 L 186.7,547.9 L 188.6,549.1 L 189.8,551.5 L 193.6,553.3 L 197.0,559.2 L 199.8,563.1 L 202.0,565.9 L 203.5,569.6 L 208.5,571.4 L 213.7,573.5 L 214.7,577.8 L 215.1,580.9 L 214.2,584.3 L 212.4,586.6 L 210.8,585.8 L 209.3,582.7 L 206.6,581.2 L 204.8,580.1 L 204.0,580.9 L 205.4,583.7 L 205.6,587.4 L 204.5,587.9 L 202.5,585.9 L 200.4,584.6 L 200.9,586.2 L 202.2,588.0 L 201.4,588.8 C 201.4,588.8 200.6,588.5 200.1,587.9 C 199.6,587.2 198.0,584.5 198.0,584.5 L 197.0,582.2 C 197.0,582.2 196.7,583.5 196.1,583.2 C 195.4,582.8 194.8,581.7 194.8,581.7 L 196.6,579.8 L 195.1,578.3 L 195.1,573.3 L 194.3,573.3 L 193.5,576.7 L 192.3,577.2 L 191.4,573.5 L 190.7,569.7 L 189.9,569.3 L 190.2,574.9 L 190.2,576.1 L 188.8,574.8 L 185.2,568.8 L 183.1,568.3 L 182.5,564.6 L 180.9,561.7 L 179.3,560.5 L 179.3,558.3 L 181.4,557.0 L 180.9,556.7 L 178.3,557.3 L 174.9,554.9 L 172.3,552.0 L 167.5,549.4 L 163.4,546.8 L 164.7,543.6 L 164.7,541.9 L 162.9,543.6 L 160.0,544.7 L 156.3,543.6 L 150.6,541.1 L 145.1,541.1 L 144.5,541.6 L 138.0,537.7 L 135.9,537.4 L 133.2,531.6 L 129.6,531.9 L 126.1,533.4 L 126.6,537.9 L 127.7,535.0 L 128.7,535.3 L 127.2,539.7 L 130.4,536.9 L 131.1,538.5 L 127.2,542.9 L 125.9,542.6 L 125.4,540.6 L 124.1,539.8 L 122.8,541.0 L 120.1,539.2 L 117.0,541.3 L 115.2,543.4 L 111.8,545.5 L 107.2,545.3 L 106.7,543.2 L 110.4,542.6 L 110.4,541.3 L 108.1,540.6 L 109.1,538.2 L 111.4,534.3 L 111.4,532.6 L 111.5,531.8 L 115.9,529.5 L 116.9,530.8 L 119.6,530.8 L 118.3,528.2 L 114.6,527.9 L 109.6,530.6 L 107.2,534.0 L 105.4,536.6 L 104.2,538.9 L 100.0,540.3 L 97.0,542.9 L 96.6,544.5 L 98.9,545.5 L 99.7,547.6 L 97.0,550.8 L 90.5,555.0 L 82.7,559.2 L 80.6,560.4 L 75.3,561.5 L 70.0,563.8 L 71.7,565.1 L 70.3,566.5 L 69.8,567.6 L 67.1,566.7 L 63.8,566.8 L 63.0,569.1 L 62.0,569.1 L 62.4,566.7 L 58.8,568.0 L 55.9,568.9 L 52.5,567.6 L 49.6,569.6 L 46.4,569.6 L 44.3,570.9 L 42.7,571.7 L 40.5,571.4 L 38.0,570.2 L 35.7,570.9 L 34.7,571.8 L 33.1,570.7 L 33.1,568.8 L 36.2,567.5 L 42.5,568.1 L 46.9,566.5 L 49.0,564.4 L 51.9,563.8 L 53.6,563.0 L 56.4,563.1 L 58.0,564.4 L 59.0,564.1 L 61.2,561.3 L 64.3,560.4 L 67.7,559.7 L 69.0,559.4 L 69.6,559.9 L 70.5,559.9 L 71.7,556.2 L 75.8,554.7 L 77.7,551.0 L 80.0,546.5 L 81.6,545.0 L 81.9,542.4 L 80.3,543.7 L 76.9,544.4 L 76.3,541.9 L 75.0,541.6 L 74.0,542.6 L 73.9,545.5 L 72.4,545.3 L 70.9,539.5 L 69.6,540.8 L 68.5,540.3 L 68.2,538.4 L 64.2,538.5 L 62.0,539.7 L 59.5,539.4 L 60.9,537.9 L 61.4,535.3 L 60.8,533.4 L 62.2,532.4 L 63.5,532.2 L 62.9,530.5 L 62.9,526.1 L 61.9,525.1 L 61.1,526.6 L 54.9,526.6 L 53.5,525.3 L 52.8,521.4 L 50.7,517.9 L 50.7,516.9 L 52.8,516.1 L 53.0,514.0 L 54.1,512.8 L 53.3,512.4 L 52.0,512.8 L 50.9,510.1 L 51.9,505.1 L 56.4,501.9 L 59.0,500.2 L 60.9,496.5 L 63.7,495.2 L 66.3,496.4 L 66.6,498.8 L 69.0,498.5 L 72.2,496.0 L 73.9,496.7 L 74.8,497.3 L 76.4,497.3 L 78.7,496.0 L 79.5,491.7 C 79.5,491.7 79.8,488.8 80.5,488.3 C 81.1,487.8 81.4,487.3 81.4,487.3 L 80.3,485.4 L 77.7,486.2 L 74.5,487.0 L 72.6,486.5 L 69.0,484.7 L 64.0,484.6 L 60.4,480.8 L 60.9,477.0 L 61.6,474.5 L 59.5,472.8 L 57.5,469.0 L 58.0,468.2 L 64.8,467.7 L 66.9,467.7 L 67.9,468.7 L 68.5,468.7 L 68.4,467.1 L 72.2,466.4 L 74.8,466.8 L 76.3,467.9 L 74.8,470.0 L 74.3,471.5 L 77.1,473.1 L 82.1,474.9 L 83.9,473.9 L 81.6,469.5 L 80.6,466.3 L 81.6,465.5 L 78.2,463.5 L 77.7,462.4 L 78.2,460.8 L 77.4,456.9 L 74.5,452.2 L 72.1,448.0 L 75.0,446.1 L 78.2,446.1 L 80.0,446.7 L 84.2,446.6 L 87.9,443.0 L 89.0,439.9 L 92.8,437.5 L 94.4,438.5 L 97.1,437.8 L 100.8,435.7 L 102.0,435.6 L 103.0,436.4 L 107.5,436.2 L 110.2,433.1 L 111.4,433.1 L 114.9,435.6 L 116.9,437.7 L 116.4,438.8 L 117.0,439.9 L 118.6,438.3 L 122.5,438.6 L 122.8,442.4 L 124.8,443.8 L 131.9,444.5 L 138.2,448.7 L 139.6,447.7 L 144.8,450.3 L 146.9,449.6 L 148.9,448.8 L 153.7,450.8 L 158.1,453.7 z M 43.0,482.6 L 45.1,487.9 L 44.9,488.9 L 42.0,488.6 L 40.2,484.6 L 38.4,483.1 L 36.0,483.1 L 35.9,480.5 L 37.6,478.1 L 38.8,480.5 L 40.2,482.0 L 43.0,482.6 z M 40.4,516.1 L 44.1,516.9 L 47.8,517.9 L 48.6,518.8 L 47.0,522.5 L 43.9,522.4 L 40.5,518.8 L 40.4,516.1 z M 19.7,502.0 L 20.8,504.6 L 22.0,506.2 L 20.8,507.0 L 18.7,504.0 L 18.7,502.0 L 19.7,502.0 z M 6.0,575.1 L 9.3,572.8 L 12.7,571.8 L 15.3,572.2 L 15.8,573.8 L 17.8,574.3 L 19.7,572.3 L 19.4,570.7 L 22.1,570.1 L 25.0,572.7 L 23.9,574.4 L 19.5,575.6 L 16.8,575.1 L 13.1,574.0 L 8.7,575.4 L 7.1,575.7 L 6.0,575.1 z M 54.9,570.6 L 56.6,572.5 L 58.7,570.9 L 57.2,569.6 L 54.9,570.6 z M 57.8,573.6 L 59.0,571.4 L 61.1,571.7 L 60.3,573.6 L 57.8,573.6 z M 81.4,571.7 L 82.9,573.5 L 83.9,572.3 L 83.1,570.4 L 81.4,571.7 z M 90.2,559.2 L 91.3,565.1 L 94.2,565.9 L 99.2,563.0 L 103.6,560.4 L 102.0,557.9 L 102.5,555.5 L 100.4,556.8 L 97.5,556.0 L 99.1,554.9 L 101.0,555.7 L 104.9,553.9 L 105.4,552.5 L 103.0,551.6 L 103.8,549.7 L 101.0,551.6 L 96.3,555.2 L 91.5,558.1 L 90.2,559.2 z M 132.5,539.4 L 135.0,537.9 L 134.0,536.1 L 132.2,537.1 L 132.5,539.4 z" />
  <path id="FL" d="M 759.8,439.1 L 762.1,446.5 L 765.8,456.2 L 771.1,465.6 L 774.9,471.9 L 779.7,477.4 L 783.8,481.1 L 785.4,484.0 L 784.2,485.3 L 783.4,486.6 L 786.3,494.0 L 789.3,496.9 L 791.8,502.3 L 795.4,508.1 L 799.9,516.3 L 801.2,523.9 L 801.7,535.9 L 802.3,537.7 L 802.0,541.1 L 799.6,542.4 L 799.9,544.3 L 799.3,546.2 L 799.6,548.7 L 800.1,550.6 L 797.3,553.8 L 794.3,555.3 L 790.4,555.5 L 788.9,557.1 L 786.5,558.0 L 785.2,557.6 L 784.1,556.6 L 783.8,553.7 L 782.9,550.3 L 779.6,545.1 L 776.0,542.9 L 772.1,542.5 L 771.3,543.8 L 768.2,539.5 L 767.6,535.9 L 765.0,531.9 L 763.2,530.7 L 761.6,532.8 L 759.8,532.5 L 757.7,527.5 L 754.8,523.6 L 751.9,518.3 L 749.3,515.2 L 745.8,511.5 L 747.9,509.1 L 751.1,503.6 L 750.9,502.0 L 746.4,501.0 L 744.8,501.6 L 745.1,502.3 L 747.7,503.2 L 746.3,507.8 L 745.4,508.3 L 743.7,504.2 L 742.4,499.4 L 742.0,496.6 L 743.5,491.9 L 743.5,482.4 L 740.4,478.7 L 739.1,475.6 L 734.0,474.3 L 732.0,473.7 L 730.4,471.1 L 727.0,469.5 L 725.9,466.1 L 723.1,465.1 L 720.7,461.4 L 716.5,459.9 L 713.6,458.5 L 711.0,458.5 L 707.0,459.3 L 706.8,461.2 L 707.6,462.2 L 707.1,463.3 L 704.1,463.2 L 700.3,466.7 L 696.8,468.7 L 692.9,468.7 L 689.7,469.9 L 689.3,467.2 L 687.7,465.3 L 684.8,464.1 L 683.2,462.7 L 675.1,458.8 L 667.5,457.0 L 663.2,457.7 L 657.2,458.1 L 651.2,460.2 L 647.7,460.9 L 647.5,452.8 L 644.9,450.9 L 643.1,449.1 L 643.4,446.0 L 653.6,444.7 L 679.2,441.8 L 686.0,441.2 L 691.4,441.4 L 694.0,445.3 L 695.4,446.8 L 703.5,447.3 L 714.3,446.7 L 735.9,445.4 L 741.3,444.7 L 746.4,444.9 L 746.8,447.8 L 749.1,448.6 L 749.3,444.0 L 747.8,439.8 L 749.1,438.4 L 754.6,438.8 L 759.8,439.1 z M 772.4,571.5 L 774.8,570.9 L 776.1,570.7 L 777.5,568.3 L 779.9,566.7 L 781.2,567.2 L 782.9,567.5 L 783.3,568.6 L 779.8,569.8 L 775.6,571.2 L 773.3,572.4 L 772.4,571.5 z M 785.9,566.5 L 787.1,567.6 L 789.8,565.5 L 795.2,561.3 L 798.9,557.4 L 801.4,550.8 L 802.4,549.1 L 802.5,545.7 L 801.8,546.2 L 800.8,549.0 L 799.4,553.6 L 796.1,558.9 L 791.8,563.1 L 788.4,565.0 L 785.9,566.5 z" />
  <path id="NH" d="M 880.8,142.4 L 881.7,141.3 L 882.8,138.1 L 880.2,137.1 L 879.7,134.1 L 875.9,132.9 L 875.5,130.2 L 868.3,106.8 L 863.7,92.2 L 862.8,92.2 L 862.1,93.8 L 861.5,93.3 L 860.5,92.4 L 859.0,94.3 L 859.0,99.3 L 859.3,105.0 L 861.2,107.8 L 861.2,111.8 L 857.5,116.9 L 854.9,118.0 L 854.9,119.1 L 856.1,120.9 L 856.1,129.5 L 855.3,138.7 L 855.1,143.5 L 856.1,144.8 L 855.9,149.4 L 855.4,151.1 L 856.4,151.8 L 873.2,147.4 L 875.4,146.8 L 877.2,144.0 L 880.8,142.4 z" />
  <g id="MI">
    <path id="MI-" d="M 697.9,177.2 L 694.6,169.0 L 692.4,159.9 L 689.9,156.7 L 687.4,154.9 L 685.7,156.1 L 681.9,157.8 L 679.9,162.8 L 677.2,166.6 L 676.0,167.2 L 674.6,166.6 C 674.6,166.6 672.0,165.1 672.2,164.5 C 672.3,163.8 672.6,159.5 672.6,159.5 L 676.0,158.2 L 676.8,154.8 L 677.5,152.2 L 679.9,150.6 L 679.6,140.5 L 678.0,138.3 L 676.7,137.5 L 675.9,135.4 L 676.7,134.6 L 678.3,134.9 L 678.5,133.3 L 676.0,131.0 L 674.7,128.4 L 672.2,128.4 L 667.6,127.0 L 662.1,123.6 L 659.4,123.6 L 658.7,124.2 L 657.8,123.7 L 654.7,121.5 L 651.8,123.2 L 648.9,125.5 L 649.2,129.1 L 650.2,129.4 L 652.3,129.9 L 652.8,130.7 L 650.2,131.5 L 647.6,131.8 L 646.1,133.6 L 645.8,135.7 L 646.1,137.3 L 646.5,142.8 L 642.9,144.9 L 642.2,144.7 L 642.2,140.5 L 643.5,138.1 L 644.2,135.7 L 643.4,134.9 L 641.4,135.7 L 640.5,139.9 L 637.7,141.0 L 635.9,143.0 L 635.8,143.9 L 636.4,144.7 L 635.8,147.3 L 633.5,147.8 L 633.5,148.9 L 634.3,151.4 L 633.2,157.5 L 631.6,161.6 L 632.2,166.2 L 632.7,167.4 L 631.9,169.8 L 631.6,170.6 L 631.3,173.4 L 634.8,179.3 L 637.7,185.8 L 639.2,190.7 L 638.4,195.3 L 637.4,201.3 L 635.0,206.5 L 634.7,209.2 L 631.4,212.3 L 635.8,212.2 L 657.2,209.9 L 664.5,208.9 L 664.6,210.6 L 671.4,209.4 L 681.7,207.9 L 685.6,207.4 L 685.7,206.8 L 685.9,205.4 L 688.0,201.6 L 690.0,199.9 L 689.8,194.9 L 691.4,193.3 L 692.5,192.9 L 692.7,189.4 L 694.2,186.3 L 695.3,186.9 L 695.4,187.6 L 696.2,187.7 L 698.2,186.8 L 697.9,177.2 z" />
    <path id="SP-" d="M 581.6,82.1 L 583.4,80.0 L 585.6,79.2 L 591.0,75.3 L 593.3,74.7 L 593.7,75.2 L 588.6,80.3 L 585.3,82.3 L 583.2,83.2 L 581.6,82.1 z M 667.8,114.2 L 668.4,116.7 L 671.7,116.9 L 673.0,115.6 C 673.0,115.6 672.9,114.2 672.6,114.0 C 672.2,113.9 670.9,112.2 670.9,112.2 L 668.8,112.4 L 667.1,112.6 L 666.8,113.7 L 667.8,114.2 z M 567.5,111.2 L 568.2,110.6 L 571.0,109.8 L 574.5,107.6 L 574.5,106.6 L 575.2,105.9 L 581.1,105.0 L 583.6,103.0 L 587.9,100.9 L 588.1,99.6 L 590.0,96.7 L 591.8,95.9 L 593.1,94.1 L 595.4,91.9 L 599.7,89.5 L 604.4,89.0 L 605.6,90.1 L 605.2,91.1 L 601.5,92.0 L 600.1,95.1 L 597.8,95.9 L 597.3,98.3 L 594.9,101.6 L 594.6,104.2 L 595.4,104.7 L 596.3,103.5 L 599.9,100.6 L 601.2,101.9 L 603.5,101.9 L 606.7,102.9 L 608.1,104.0 L 609.6,107.1 L 612.3,109.8 L 616.2,109.7 L 617.7,108.7 L 619.3,110.0 L 620.9,110.5 L 622.2,109.7 L 623.3,109.7 L 625.0,108.7 L 629.0,105.1 L 632.4,104.0 L 639.0,103.7 L 643.5,101.7 L 646.1,100.4 L 647.6,100.6 L 647.6,106.3 L 648.1,106.6 L 651.0,107.4 L 652.9,106.9 L 659.1,105.3 L 660.2,104.2 L 661.6,104.7 L 661.6,111.6 L 664.9,114.7 L 666.2,115.3 L 667.5,116.3 L 666.2,116.6 L 665.4,116.3 L 661.6,115.8 L 659.5,116.5 L 657.3,116.3 L 654.1,117.7 L 652.3,117.7 L 646.5,116.5 L 641.3,116.6 L 639.3,119.2 L 632.4,119.8 L 630.0,120.7 L 628.8,123.7 L 627.5,124.9 L 627.1,124.7 L 625.6,123.1 L 621.1,125.5 L 620.4,125.5 L 619.3,123.9 L 618.5,124.1 L 616.5,128.4 L 615.6,132.5 L 612.4,139.5 L 611.2,138.4 L 609.8,137.4 L 607.9,127.1 L 604.4,125.7 L 602.3,123.4 L 590.2,120.7 L 587.3,119.7 L 579.1,117.5 L 571.2,116.4 L 567.5,111.2 z" />
  </g>
  <path id="VT" d="M 844.5,154.1 L 844.8,148.7 L 841.9,137.9 L 841.3,137.6 L 838.4,136.3 L 839.2,133.4 L 838.4,131.3 L 835.7,126.7 L 836.6,122.8 L 835.8,117.6 L 833.4,111.1 L 832.6,106.2 L 859.0,99.5 L 859.3,105.0 L 861.2,107.8 L 861.2,111.8 L 857.5,116.9 L 854.9,118.0 L 854.9,119.1 L 856.2,120.6 L 855.9,128.7 L 855.3,138.0 L 855.1,143.5 L 856.1,144.8 L 855.9,149.4 L 855.4,151.1 L 856.4,151.8 L 849.0,153.3 L 844.5,154.1 z" />
  <path id="ME" d="M 922.8,78.8 L 924.8,80.9 L 927.0,84.7 L 927.0,86.6 L 924.9,91.3 L 923.0,91.9 L 919.6,95.0 L 914.8,100.5 C 914.8,100.5 914.1,100.5 913.5,100.5 C 912.8,100.5 912.5,98.4 912.5,98.4 L 910.7,98.6 L 909.7,100.0 L 907.3,101.5 L 906.4,102.9 L 908.0,104.4 L 907.5,105.0 L 907.0,107.8 L 905.1,107.6 L 905.1,106.0 L 904.7,104.7 L 903.3,105.0 L 901.5,101.8 L 899.4,103.1 L 900.7,104.5 L 901.0,105.7 L 900.2,107.0 L 900.5,110.0 L 900.7,111.6 L 899.1,114.2 L 896.2,114.7 L 895.8,117.6 L 890.5,120.7 L 889.2,121.2 L 887.6,119.7 L 884.5,123.3 L 885.5,126.5 L 884.0,127.8 L 883.9,132.2 L 882.8,138.4 L 880.3,137.3 L 879.8,134.2 L 875.9,133.1 L 875.6,130.3 L 868.3,106.9 L 863.6,92.3 L 865.1,92.1 L 866.6,92.5 L 866.6,90.0 L 867.9,85.5 L 870.5,80.8 L 871.9,76.7 L 870.0,74.3 L 870.0,68.3 L 870.8,67.4 L 871.6,64.6 L 871.4,63.1 L 871.3,58.3 L 873.0,53.5 L 876.0,44.6 L 878.1,40.4 L 879.4,40.4 L 880.6,40.5 L 880.6,41.6 L 881.9,43.9 L 884.7,44.6 L 885.5,43.8 L 885.5,42.8 L 889.5,39.9 L 891.3,38.1 L 892.8,38.3 L 898.8,40.7 L 900.7,41.6 L 909.7,71.6 L 915.7,71.6 L 916.5,73.5 L 916.7,78.3 L 919.6,80.6 L 920.4,80.6 L 920.6,80.1 L 920.1,79.0 L 922.8,78.8 z M 901.9,109.0 L 903.4,107.4 L 904.8,108.5 L 905.4,110.9 L 903.7,111.8 L 901.9,109.0 z M 908.6,103.1 L 910.4,104.9 C 910.4,104.9 911.7,105.0 911.7,104.7 C 911.7,104.4 911.9,102.7 911.9,102.7 L 912.8,101.9 L 912.0,100.1 L 910,100.8 L 908.6,103.1 z" />
  <path id="RI" d="M 874.1,178.9 L 870.4,163.9 L 876.6,162.1 L 878.8,164.0 L 882.1,168.3 L 884.8,172.7 L 881.8,174.4 L 880.5,174.2 L 879.4,176.0 L 877.0,177.9 L 874.1,178.9 z" />
  <path id="NY" d="M 830.4,188.7 L 829.2,187.8 L 826.7,187.6 L 824.4,185.7 L 822.8,179.5 L 819.3,179.6 L 816.9,176.9 L 797.5,181.3 L 754.5,190.0 L 746.9,191.3 L 746.2,184.8 L 747.6,183.7 L 748.9,182.5 L 749.9,180.9 L 751.7,179.8 L 753.6,178.0 L 754.1,176.4 L 756.2,173.7 L 757.3,172.7 L 757.2,171.7 L 755.9,168.6 L 754.1,168.5 L 752.2,162.3 L 755.1,160.6 L 759.4,159.1 L 763.5,157.8 L 766.7,157.3 L 773.0,157.2 L 775.0,158.5 L 776.6,158.6 L 778.7,157.3 L 781.3,156.2 L 786.4,155.7 L 788.5,153.9 L 790.3,150.7 L 791.9,148.8 L 794.0,148.8 L 796.0,147.6 L 796.1,145.4 L 794.7,143.3 L 794.4,141.8 L 795.5,139.7 L 795.5,138.2 L 793.7,138.2 L 791.9,137.4 L 791.1,136.3 L 791.0,133.7 L 796.8,128.2 L 797.4,127.4 L 798.9,124.5 L 801.8,120 L 804.5,116.3 L 806.6,113.8 L 809.1,112.0 L 812.1,110.8 L 817.6,109.5 L 820.9,109.6 L 825.4,108.2 L 833.0,106.1 L 833.5,111.1 L 835.9,117.6 L 836.7,122.7 L 835.7,126.6 L 838.3,131.1 L 839.1,133.2 L 838.3,136.1 L 841.2,137.4 L 841.9,137.8 L 845.0,148.8 L 844.4,153.8 L 843.9,164.6 L 844.7,170.1 L 845.6,173.7 L 847.0,181.0 L 847.0,189.1 L 845.9,191.3 L 847.7,193.3 L 848.5,195.0 L 846.6,196.8 L 846.9,198.1 L 848.2,197.7 L 849.6,196.4 L 851.9,193.9 L 853.0,193.2 L 854.7,193.9 L 856.9,194.0 L 864.8,190.1 L 867.8,187.4 L 869.0,185.9 L 873.2,187.6 L 869.9,191.1 L 866.0,194.0 L 858.9,199.4 L 856.3,200.3 L 850.5,202.3 L 846.4,203.4 L 845.2,202.9 L 845.0,199.2 L 845.5,196.4 L 845.3,194.3 L 842.5,192.6 L 838.0,191.7 L 834.1,190.5 L 830.4,188.7 z" />
  <path id="PA" d="M 825.1,224.7 L 826.4,224.4 L 828.8,223.2 L 830.0,220.7 L 831.6,218.4 L 834.8,215.3 L 834.8,214.5 L 832.4,212.9 L 828.8,210.5 L 827.9,207.9 L 825.1,207.6 L 825.0,206.5 L 824.2,203.7 L 826.4,202.6 L 826.6,200.2 L 825.3,198.9 L 825.4,197.2 L 827.4,194.2 L 827.4,191.1 L 830.1,188.5 L 829.2,187.8 L 826.6,187.6 L 824.3,185.6 L 822.8,179.5 L 819.3,179.6 L 816.8,176.9 L 798.7,181.1 L 755.7,189.9 L 746.9,191.3 L 746.2,184.8 L 740.9,189.9 L 739.6,190.3 L 735.4,193.4 L 738.3,212.5 L 740.8,222.2 L 744.3,241.5 L 747.6,240.8 L 759.6,239.3 L 797.5,231.7 L 812.4,228.9 L 820.7,227.2 L 820.9,227.0 L 823.0,225.4 L 825.1,224.7 z" />
  <path id="NJ" d="M 829.7,188.5 L 827.4,191.2 L 827.4,194.3 L 825.4,197.3 L 825.3,199.0 L 826.5,200.2 L 826.4,202.7 L 824.1,203.8 L 824.9,206.6 L 825.1,207.7 L 827.8,208.0 L 828.8,210.6 L 832.4,213.0 L 834.8,214.6 L 834.8,215.4 L 831.8,218.1 L 830.2,220.4 L 828.7,223.2 L 826.5,224.4 L 826.0,226.0 L 825.8,227.3 L 825.2,229.9 L 826.3,232.1 L 829.5,235.0 L 834.3,237.3 L 838.4,237.9 L 838.5,239.4 L 837.7,240.4 L 838.1,243.1 L 838.9,243.1 L 841.0,240.7 L 841.8,235.8 L 844.5,231.8 L 847.6,225.3 L 848.7,219.8 L 848.1,218.7 L 847.9,209.3 L 846.3,205.9 L 845.2,206.7 L 842.4,207.1 L 841.9,206.6 L 843.1,205.6 L 845.2,203.7 L 845.2,202.6 L 844.8,199.1 L 845.4,196.4 L 845.3,194.4 L 842.5,192.7 L 837.4,191.5 L 833.3,190.1 L 829.7,188.5 z" />
  <path id="DE" d="M 825.6,228.3 L 826.0,226.1 L 826.4,224.4 L 824.7,224.8 L 823.1,225.3 L 820.9,227.1 L 822.6,232.1 L 824.9,237.8 L 827.0,247.5 L 828.6,253.8 L 833.6,253.6 L 839.8,252.4 L 837.5,245.0 L 836.5,245.5 L 833.0,243.1 L 831.2,238.4 L 829.3,234.9 L 826.1,232.0 L 825.3,229.9 L 825.6,228.3 z" />
  <path id="MD" d="M 839.8,252.4 L 833.8,253.6 L 828.6,253.7 L 826.8,246.8 L 824.9,237.6 L 822.3,231.5 L 821.0,227.1 L 813.5,228.7 L 798.6,231.5 L 761.2,239.1 L 762.3,244.1 L 763.3,249.7 L 763.6,249.4 L 765.7,247.0 L 768.0,244.4 L 770.4,243.7 L 771.8,242.3 L 773.6,239.7 L 774.9,240.3 L 777.8,240.0 L 780.4,237.9 L 782.4,236.5 L 784.3,236.0 L 785.9,237.1 L 788.8,238.6 L 790.8,240.3 L 792.0,241.9 L 796.1,243.6 L 796.1,246.5 L 801.6,247.8 L 802.7,248.3 L 804.1,246.3 L 807.0,248.3 L 805.8,250.7 L 805.0,254.7 L 803.2,257.3 L 803.2,259.4 L 803.9,261.2 L 808.9,262.6 L 813.2,262.5 L 816.3,263.5 L 818.4,263.8 L 819.4,261.7 L 817.9,259.6 L 817.9,257.8 L 815.5,255.7 L 813.4,250.2 L 814.7,244.9 L 814.5,242.8 L 813.2,241.5 C 813.2,241.5 814.7,239.9 814.7,239.2 C 814.7,238.6 815.2,237.1 815.2,237.1 L 817.1,235.8 L 819.1,234.2 L 819.5,235.2 L 818.1,236.8 L 816.8,240.5 L 817.1,241.6 L 818.9,242.0 L 819.4,247.5 L 817.3,248.4 L 817.6,252.0 L 818.1,251.8 L 819.2,249.9 L 820.8,251.7 L 819.2,253.0 L 818.9,256.4 L 821.5,259.7 L 825.4,260.2 L 827.0,259.4 L 830.2,263.6 L 831.6,264.1 L 838.2,261.3 L 840.2,257.3 L 839.8,252.4 z M 823.8,261.4 L 825.0,263.9 L 825.1,265.7 L 826.2,267.6 C 826.2,267.6 827.1,266.7 827.1,266.4 C 827.1,266.1 826.4,263.3 826.4,263.3 L 825.7,261.0 L 823.8,261.4 z" />
  <path id="VA" d="M 831.6,266.1 L 831.5,264.1 L 837.9,261.6 L 837.2,264.8 L 834.3,268.6 L 833.8,273.2 L 834.3,276.5 L 832.5,281.5 L 830.3,283.4 L 828.8,278.8 L 829.3,273.3 L 830.9,269.2 L 831.6,266.1 z M 835.0,294.4 L 776.8,306.9 L 739.4,312.2 L 732.7,311.8 L 730.1,313.8 L 722.8,314.0 L 714.4,315.0 L 703.5,316.6 L 713.9,311.0 L 713.9,308.9 L 715.5,306.8 L 726.0,295.3 L 730.0,299.7 L 733.7,300.7 L 736.3,299.6 L 738.5,298.2 L 741.1,299.6 L 745.0,298.2 L 746.8,293.6 L 749.4,294.1 L 752.3,292.0 L 754.1,292.5 L 756.9,288.8 L 757.3,286.7 L 756.3,285.5 L 757.3,283.6 L 762.6,271.3 L 763.2,265.6 L 764.4,265.1 L 766.6,267.5 L 770.6,267.2 L 772.5,259.6 L 775.3,259.1 L 776.3,256.3 L 778.9,254.0 L 781.7,248.3 L 781.8,243.2 L 791.6,247.0 C 792.3,247.4 792.4,242.0 792.4,242.0 L 796.1,243.6 L 796.1,246.5 L 801.9,247.8 L 804.1,249.0 L 805.7,251.1 L 805.1,254.7 L 803.1,257.3 L 803.2,259.4 L 803.8,261.2 L 808.8,262.5 L 813.2,262.5 L 816.3,263.5 L 818.3,263.8 L 819.0,266.9 L 822.2,267.3 L 823.0,268.5 L 822.6,273.2 L 824.0,274.3 L 823.5,276.2 L 824.7,277.0 L 824.5,278.4 L 821.8,278.3 L 821.9,279.9 L 824.2,281.4 L 824.3,282.9 L 826.1,284.6 L 826.6,287.2 L 824.0,288.5 L 825.6,290.0 L 831.4,288.4 L 835.0,294.4 z" />
  <path id="WV" d="M 761.2,239.0 L 762.3,243.9 L 763.4,249.9 L 765.5,247.4 L 767.8,244.3 L 770.3,243.7 L 771.8,242.2 L 773.5,239.6 L 775.0,240.3 L 777.9,240.0 L 780.5,237.9 L 782.5,236.4 L 784.3,235.9 L 785.6,236.9 L 789.3,238.8 L 791.2,240.5 L 792.6,241.8 L 791.8,247.4 L 786.0,244.8 L 781.8,243.2 L 781.7,248.4 L 778.9,253.9 L 776.4,256.4 L 775.2,259.1 L 772.5,259.6 L 771.6,263.2 L 770.6,267.2 L 766.6,267.5 L 764.3,265.1 L 763.2,265.6 L 762.6,271.1 L 761.3,274.6 L 756.3,285.6 L 757.2,286.7 L 757.0,288.7 L 754.2,292.5 L 752.4,292.0 L 749.4,294.2 L 746.9,293.6 L 744.9,298.1 C 744.9,298.1 741.6,299.6 740.9,299.5 C 740.8,299.5 738.5,298.3 738.5,298.3 L 736.1,299.6 L 733.7,300.7 L 730.0,299.8 L 728.9,298.6 L 726.7,295.6 L 723.5,293.6 L 721.8,290.0 L 717.5,286.5 L 716.9,284.3 L 714.3,282.8 L 713.5,281.2 L 713.2,275.9 L 715.4,275.8 L 717.4,275.0 L 717.5,272.3 L 719.1,270.8 L 719.3,265.8 L 720.3,261.9 L 721.6,261.3 L 722.9,262.4 L 723.3,264.2 L 725.1,263.2 L 725.6,261.6 L 724.5,259.8 L 724.5,257.4 L 725.4,256.1 L 727.7,252.7 L 729.0,251.3 L 731.1,251.8 L 733.4,250.1 L 736.4,246.7 L 738.7,242.9 L 739.0,237.2 L 739.5,232.2 L 739.5,227.5 L 738.4,224.4 L 739.4,223.0 L 740.6,221.7 L 744.1,241.5 L 748.8,240.8 L 761.2,239.0 z" />
  <path id="OH" d="M 735.3,193.3 L 729.2,197.4 L 725.4,199.6 L 722.0,203.4 L 717.9,207.2 L 714.7,208.1 L 711.8,208.5 L 706.3,211.1 L 704.2,211.3 L 700.8,208.2 L 695.6,208.9 L 693.0,207.4 L 690.6,206.1 L 685.7,206.8 L 675.6,208.4 L 664.4,210.6 L 665.6,225.2 L 667.4,238.9 L 670.0,262.4 L 670.6,267.2 L 674.7,267.1 L 677.1,266.3 L 680.5,267.8 L 682.6,272.1 L 687.7,272.1 L 689.6,274.2 L 691.4,274.2 L 693.9,272.8 L 696.4,273.2 L 701.8,273.7 L 703.5,271.5 L 705.9,270.3 L 708.0,269.6 L 708.6,272.3 L 710.4,273.3 L 713.9,275.6 L 716.0,275.6 L 717.4,275.1 L 717.6,272.3 L 719.1,270.8 L 719.2,266.1 C 719.2,266.1 720.3,261.9 720.3,261.9 L 721.6,261.3 L 722.9,262.5 L 723.4,264.2 L 725.1,263.2 L 725.6,261.7 L 724.5,259.8 L 724.5,257.5 L 725.3,256.4 L 727.4,253.1 L 728.5,251.6 L 730.6,252.0 L 732.9,250.4 L 735.9,247.0 L 738.7,242.9 L 739.0,237.9 L 739.5,232.9 L 739.3,227.6 L 738.4,224.7 L 738.7,223.5 L 740.5,221.7 L 738.2,212.7 L 735.3,193.3 z" />
  <path id="IN" d="M 619.6,300.0 L 619.6,297.1 L 620.1,292.6 L 622.4,289.7 L 624.2,285.8 L 626.7,281.6 L 626.3,275.8 L 624.5,273.0 L 624.2,269.8 L 625.0,264.3 L 624.5,257.3 L 623.2,241.3 L 621.9,226.0 L 620.9,214.3 L 624.0,215.2 L 625.5,216.1 L 626.6,215.8 L 628.7,213.9 L 631.5,212.2 L 636.6,212.1 L 658.6,209.8 L 664.2,209.3 L 665.7,225.2 L 669.9,262.1 L 670.5,267.9 L 670.2,270.1 L 671.4,271.9 L 671.5,273.3 L 669.0,274.9 L 665.4,276.4 L 662.2,277.0 L 661.6,281.9 L 657.0,285.2 L 654.2,289.2 L 654.6,291.6 L 654.0,293.1 L 650.7,293.1 L 649.1,291.5 L 646.6,292.7 L 643.9,294.2 L 644.1,297.3 L 642.9,297.5 L 642.4,296.5 L 640.2,295.0 L 637.0,296.4 L 635.4,299.4 L 634.0,298.6 L 632.5,297.0 L 628.1,297.5 L 622.5,298.4 L 619.6,300.0 z" />
  <path id="IL" d="M 619.5,300.3 L 619.6,297.1 L 620.1,292.5 L 622.5,289.6 L 624.3,285.5 L 626.6,281.5 L 626.2,276.2 L 624.2,272.7 L 624.1,269.3 L 624.8,264.1 L 624.0,256.9 L 622.9,241.1 L 621.6,226.1 L 620.7,214.5 L 620.4,213.5 L 619.6,210.9 L 618.3,207.2 L 616.7,205.5 L 615.2,202.9 L 615.0,197.4 L 569.2,200.0 L 569.4,202.3 L 571.7,203.0 L 572.6,204.2 L 573.1,206.0 L 577.0,209.4 L 577.7,211.7 L 577.0,215.1 L 575.2,218.8 L 574.5,221.3 L 572.2,223.2 L 570.4,223.8 L 565.1,225.2 L 564.4,227.0 L 563.7,229.1 L 564.4,230.5 L 566.2,232.1 L 566.0,236.2 L 564.2,237.8 L 563.5,239.4 L 563.5,242.1 L 561.7,242.6 L 560.1,243.7 L 559.8,245.1 L 560.1,247.2 L 558.4,248.5 L 557.3,251.3 L 557.8,254.9 L 560.1,262.2 L 567.4,269.8 L 572.9,273.4 L 572.6,277.8 L 573.6,279.2 L 580.0,279.6 L 582.7,281.0 L 582.0,284.7 L 579.7,290.6 L 579.0,293.8 L 581.3,297.7 L 587.7,302.9 L 592.3,303.6 L 594.4,308.7 L 596.4,311.9 L 595.5,314.8 L 597.1,318.9 L 598.9,321.0 L 600.3,320.1 L 601.3,318.0 L 603.5,316.3 L 605.6,315.7 L 608.2,316.9 L 611.8,318.2 L 613.0,317.9 L 613.2,315.7 L 611.9,313.3 L 612.2,310.9 L 614.1,309.5 L 617.1,308.7 L 618.4,308.3 L 617.7,306.9 L 617.0,304.5 L 618.4,303.6 L 619.5,300.3 z" />
  <path id="CT" d="M 874.1,178.9 L 870.4,164.0 L 865.7,164.9 L 844.4,169.6 L 845.4,172.9 L 846.9,180.1 L 847.1,189.1 L 845.9,191.3 L 847.8,193.2 L 852.0,189.3 L 855.6,186.1 L 857.5,184.0 L 858.4,184.6 L 861.1,183.2 L 866.3,182.0 L 874.1,178.9 z" />
  <path id="WI" d="M 615.1,197.4 L 615.0,194.2 L 613.8,189.7 L 613.2,183.5 L 612.0,181.1 L 613.0,178.0 L 613.8,175.1 L 615.3,172.5 L 614.6,169.2 L 614.0,165.6 L 614.5,163.8 L 616.4,161.4 L 616.6,158.6 L 615.8,157.4 L 616.4,154.8 L 616.0,150.6 L 618.7,144.9 L 621.6,138.1 L 621.8,135.9 L 621.5,134.9 L 620.6,135.4 L 616.4,141.7 L 613.7,145.7 L 611.8,147.5 L 610.9,149.8 L 609.0,150.6 L 607.9,152.5 L 606.4,152.2 L 606.2,150.4 L 607.5,148.0 L 609.6,143.3 L 611.4,141.7 L 612.4,139.3 L 609.8,137.4 L 607.9,127.1 L 604.3,125.7 L 602.4,123.4 L 590.2,120.7 L 587.4,119.7 L 579.2,117.5 L 571.2,116.4 L 567.5,111.2 L 566.7,111.8 L 565.5,111.6 L 564.9,110.5 L 563.5,110.8 L 562.4,111.0 L 560.6,111.9 L 559.7,111.3 L 560.3,109.3 L 562.3,106.3 L 563.4,105.1 L 561.4,103.7 L 559.3,104.5 L 556.4,106.4 L 549.0,109.7 L 546.1,110.3 L 543.2,109.8 L 542.2,108.9 L 540.1,111.8 L 539.8,114.5 L 539.8,123.0 L 538.7,124.6 L 533.4,128.5 L 531.2,134.4 L 531.6,134.6 L 534.1,136.7 L 534.8,139.9 L 533.0,143.1 L 533.0,147.0 L 533.4,153.6 L 536.4,156.6 L 539.8,156.6 L 541.7,159.8 L 545.1,160.2 L 549.0,166.0 L 556.1,170.1 L 558.1,172.8 L 559.1,180.3 L 559.7,183.6 L 562.0,185.2 L 562.3,186.5 L 560.2,190.0 L 560.4,193.2 L 562.9,197.1 L 565.5,198.2 L 568.4,198.7 L 569.8,200.0 L 615.1,197.4 z" />
  <path id="NC" d="M 835.0,294.3 L 837.1,299.2 L 840.6,305.7 L 843.0,308.1 L 843.7,310.4 L 841.3,310.5 L 842.1,311.2 L 841.8,315.4 L 839.2,316.7 L 838.5,318.8 L 837.2,321.7 L 833.5,323.3 L 831.1,323.0 L 829.6,322.8 L 828.0,321.5 L 828.3,322.8 L 828.3,323.8 L 830.3,323.8 L 831.1,325.1 L 829.1,331.4 L 833.3,331.4 L 834.0,333.0 L 836.3,330.8 L 837.6,330.3 L 835.6,333.8 L 832.5,338.7 L 831.2,338.7 L 830.1,338.2 L 827.4,338.8 L 822.2,341.3 L 815.7,346.6 L 812.3,351.3 L 810.4,357.8 L 809.9,360.2 L 805.2,360.7 L 799.8,362.0 L 789.8,353.8 L 777.2,346.2 L 774.3,345.4 L 761.7,346.8 L 757.4,347.6 L 755.8,344.4 L 752.8,342.2 L 736.3,342.7 L 729.1,343.5 L 720.0,348.1 L 713.9,350.7 L 692.7,353.2 L 693.2,349.2 L 695.0,347.7 L 697.7,347.1 L 698.4,343.4 L 702.6,340.6 L 706.4,339.2 L 710.6,335.6 L 715.0,333.5 L 715.7,330.4 L 719.5,326.6 L 720.2,326.4 C 720.2,326.4 720.2,327.5 721.0,327.5 C 721.8,327.5 722.9,327.8 722.9,327.8 L 725.2,324.3 L 727.3,323.6 L 729.6,324.0 L 731.2,320.4 L 734.1,317.8 L 734.6,315.7 L 734.8,312.1 L 739.0,312.1 L 746.2,311.2 L 762.0,308.9 L 777.1,306.9 L 798.8,302.1 L 818.8,297.9 L 829.9,295.5 L 835.0,294.3 z M 839.3,327.5 L 841.8,325.0 L 845.0,322.4 L 846.5,321.8 L 846.7,319.8 L 846.0,313.6 L 844.6,311.3 L 843.9,309.4 L 844.7,309.2 L 847.4,314.7 L 847.8,319.1 L 847.7,322.5 L 844.3,324.0 L 841.4,326.5 L 840.3,327.7 L 839.3,327.5 z" />
  <path id="DC" d="M 805.8,250.8 L 804.0,249.0 L 802.7,248.3 L 804.2,246.3 L 807.1,248.3 L 805.8,250.8 z" />
  <path id="MA" d="M 899.6,173.3 L 901.8,172.6 L 902.3,170.9 L 903.3,171.0 L 904.3,173.3 L 903.1,173.7 L 899.2,173.8 L 899.6,173.3 z M 890.2,174.1 L 892.5,171.4 L 894.1,171.4 L 896.0,172.9 L 893.6,173.9 L 891.4,175.0 L 890.2,174.1 z M 855.5,152.1 L 873.1,147.4 L 875.4,146.8 L 877.3,144.0 L 881.0,142.3 L 883.9,146.7 L 881.5,151.9 L 881.2,153.4 L 883.1,155.9 L 884.2,155.1 L 886.0,155.1 L 888.3,157.7 L 892.1,163.7 L 895.7,164.2 L 898.0,163.2 L 899.7,161.4 L 898.9,158.7 L 896.8,157.1 L 895.4,157.9 L 894.4,156.6 L 894.9,156.1 L 897.0,155.9 L 898.8,156.8 L 900.7,159.2 L 901.7,162.1 L 902.0,164.5 L 897.8,166.0 L 893.9,167.9 L 890.0,172.4 L 888.1,173.9 L 888.1,172.9 L 890.5,171.5 L 891.0,169.7 L 890.2,166.6 L 887.3,168.1 L 886.5,169.5 L 887.0,171.8 L 884.9,172.8 L 882.2,168.3 L 878.8,163.9 L 876.7,162.1 L 870.2,164.0 L 865.1,165.0 L 844.4,169.6 L 843.7,164.8 L 844.4,154.2 L 848.7,153.4 L 855.5,152.1 z" />
  <path id="TN" d="M 696.7,318.3 L 644.8,323.3 L 629.0,325.0 L 624.4,325.6 L 620.5,325.5 L 620.3,329.6 L 612.1,329.9 L 605.2,330.5 L 597.1,330.4 L 595.7,337.5 L 594.0,343.0 L 590.7,345.7 L 589.3,350.1 L 589.0,352.7 L 585.0,355.0 L 586.4,358.5 L 585.5,362.9 L 584.5,363.7 L 692.6,353.3 L 693.0,349.3 L 694.9,347.8 L 697.7,347.1 L 698.4,343.3 L 702.5,340.6 L 706.5,339.1 L 710.6,335.6 L 715.0,333.5 L 715.6,330.5 L 719.6,326.5 L 720.2,326.4 C 720.2,326.4 720.2,327.5 721.0,327.5 C 721.8,327.5 722.9,327.9 722.9,327.9 L 725.2,324.3 L 727.3,323.6 L 729.6,323.9 L 731.2,320.4 L 734.1,317.8 L 734.5,315.8 L 734.8,312.1 L 732.7,311.9 L 730.1,313.9 L 723.1,314.0 L 704.7,316.3 L 696.7,318.3 z" />
  <path id="AR" d="M 593.8,343.1 L 589.8,343.8 L 584.7,343.1 L 585.2,341.5 L 588.1,339.0 L 589.1,335.3 L 587.2,332.3 L 508.8,334.9 L 510.4,341.7 L 510.4,349.9 L 511.8,360.9 L 512.0,398.8 L 514.3,400.7 L 517.3,399.3 L 520.0,400.5 L 520.7,407.0 L 576.3,405.9 L 577.5,403.8 L 577.2,400.3 L 575.4,397.3 L 577.0,395.8 L 575.4,393.3 L 576.1,390.8 L 577.4,385.2 L 579.9,383.1 L 579.3,380.8 L 582.9,375.5 L 585.7,374.1 L 585.5,372.6 L 585.2,370.8 L 588.1,365.2 L 590.5,363.9 L 590.8,360.5 L 592.6,359.2 L 589.5,358.8 L 588.1,354.8 L 590.9,352.4 L 591.5,350.4 L 592.8,346.3 L 593.8,343.1 z" />
  <path id="MO" d="M 558.4,248.1 L 555.9,245.0 L 554.8,242.7 L 490.4,245.1 L 488.1,245.3 L 489.4,247.8 L 489.2,250.1 L 491.7,253.9 L 494.8,258.1 L 497.9,260.8 L 500.0,261.0 L 501.5,261.9 L 501.5,264.9 L 499.7,266.5 L 499.2,268.8 L 501.3,272.2 L 503.8,275.2 L 506.3,277.0 L 507.7,288.7 L 508.0,324.8 L 508.2,329.5 L 508.7,334.8 L 531.1,334.0 L 554.3,333.3 L 575.1,332.5 L 586.8,332.3 L 588.9,335.7 L 588.3,339.0 L 585.2,341.4 L 584.6,343.2 L 590.0,343.7 L 593.9,343.0 L 595.6,337.5 L 596.2,331.6 L 598.3,329.1 L 600.9,327.6 L 601.0,324.6 L 602.0,322.6 L 600.3,320.1 L 599.0,321.1 L 597.0,318.8 L 595.7,314.1 L 596.5,311.6 L 594.6,308.1 L 592.7,303.5 L 587.9,302.8 L 581.0,297.2 L 579.2,293.0 L 580.0,289.8 L 582.1,283.8 L 582.6,280.9 L 580.6,279.9 L 573.8,279.1 L 572.7,277.4 L 572.6,273.1 L 567.1,269.7 L 560.2,261.9 L 557.9,254.6 L 557.6,250.4 L 558.4,248.1 z" />
  <path id="GA" d="M 672.3,355.6 L 672.3,357.7 L 672.5,359.8 L 673.1,363.2 L 676.5,371.2 L 678.9,381.0 L 680.4,387.2 L 682.0,392.0 L 683.4,399.0 L 685.5,405.3 L 688.1,408.7 L 688.6,412.1 L 690.6,412.9 L 690.7,415.0 L 688.9,419.8 L 688.5,423.0 L 688.3,425.0 L 689.9,429.3 L 690.2,434.7 L 689.4,437.1 L 690.1,437.9 L 691.5,438.7 L 691.7,441.9 L 694.0,445.3 L 696.2,447.5 L 704.1,447.6 L 715.0,447.0 L 736.5,445.7 L 741.9,445.0 L 746.5,445.0 L 746.7,447.9 L 749.2,448.7 L 749.6,444.4 L 747.9,439.9 L 749.1,438.2 L 754.9,439.0 L 759.9,439.4 L 759.1,433.1 L 761.4,423.0 L 762.8,418.8 L 762.3,416.3 L 765.7,410.0 L 765.2,408.7 L 763.2,409.4 L 760.7,408.1 L 760.0,406.0 L 758.7,402.4 L 756.5,400.3 L 753.9,399.7 L 752.3,394.8 L 749.3,388.5 L 745.1,386.5 L 743.0,384.6 L 741.7,382.0 L 739.6,380.1 L 737.4,378.8 L 735.1,375.9 L 732.0,373.6 L 727.5,371.8 L 727.0,370.4 L 724.6,367.5 L 724.1,366.0 L 720.7,361.0 L 717.2,361.1 L 713.4,358.8 L 712.0,357.5 L 711.7,355.7 L 712.6,353.8 L 714.8,352.7 L 714.2,350.6 L 672.3,355.6 z" />
  <path id="SC" d="M 764.9,408.2 L 763.2,409.1 L 760.6,407.8 L 759.9,405.7 L 758.6,402.2 L 756.4,400.1 L 753.8,399.4 L 752.2,394.6 L 749.4,388.6 L 745.2,386.7 L 743.1,384.7 L 741.8,382.1 L 739.7,380.2 L 737.5,378.9 L 735.2,376.0 L 732.1,373.7 L 727.6,372.0 L 727.1,370.5 L 724.7,367.6 L 724.2,366.1 L 720.8,361.0 L 717.4,361.1 L 713.4,358.7 L 712.1,357.4 L 711.8,355.6 L 712.6,353.7 L 714.8,352.7 L 714.3,350.4 L 720.1,348.1 L 729.2,343.5 L 737.0,342.7 L 753.1,342.3 L 755.7,344.1 L 757.4,347.5 L 761.7,346.9 L 774.3,345.4 L 777.2,346.2 L 789.8,353.8 L 799.9,362.0 L 794.5,367.4 L 791.9,373.6 L 791.5,379.9 L 789.8,380.7 L 788.7,383.4 L 786.3,384.1 L 784.2,387.6 L 781.4,390.4 L 779.2,393.8 L 777.6,394.6 L 774.0,398.0 L 771.1,398.1 L 772.1,401.4 L 767.0,406.9 L 764.9,408.2 z" />
  <path id="KY" d="M 726.0,295.3 L 723.7,297.7 L 720.1,301.7 L 715.2,307.1 L 714.0,308.8 L 713.9,310.9 L 709.5,313.1 L 703.9,316.5 L 696.7,318.3 L 644.8,323.2 L 629.0,325.0 L 624.4,325.5 L 620.5,325.5 L 620.3,329.7 L 612.1,329.8 L 605.2,330.5 L 597.2,330.4 L 598.4,329.1 L 600.9,327.6 L 601.1,324.4 L 602.0,322.5 L 600.4,320.0 L 601.2,318.1 L 603.5,316.3 L 605.6,315.7 L 608.3,317.0 L 611.9,318.2 L 613.0,317.9 L 613.2,315.7 L 611.9,313.2 L 612.2,311.0 L 614.2,309.5 L 616.8,308.9 L 618.4,308.2 L 617.6,306.4 L 616.9,304.5 L 618.4,303.5 C 618.4,303.5 619.7,300.0 619.7,299.9 L 622.7,298.4 L 628.0,297.4 L 632.5,296.9 L 633.9,298.5 L 635.4,299.4 L 637.0,296.3 L 640.2,295.0 L 642.4,296.5 L 642.8,297.5 L 644.0,297.2 L 643.9,294.3 L 647.0,292.5 L 649.1,291.5 L 650.7,293.1 L 654.0,293.1 L 654.6,291.5 L 654.2,289.2 L 656.8,285.3 L 661.6,281.8 L 662.3,277.0 L 665.2,276.5 L 669.0,274.9 L 671.4,273.2 L 671.2,271.6 L 670.1,270.1 L 670.7,267.2 L 674.9,267.0 L 677.2,266.3 L 680.5,267.7 L 682.6,272.1 L 687.7,272.1 L 689.7,274.3 L 691.4,274.2 L 694.0,272.9 L 699.2,273.4 L 701.8,273.7 L 703.5,271.6 L 706.1,270.2 L 708.0,269.5 L 708.6,272.3 L 710.6,273.4 L 713.3,275.5 L 713.4,281.1 L 714.2,282.7 L 716.8,284.3 L 717.6,286.6 L 721.7,290.0 L 723.5,293.6 L 726.0,295.3 z" />
  <path id="AL" d="M 631.3,460.4 L 629.8,446.1 L 627.1,427.3 L 627.2,413.3 L 628.0,382.2 L 627.9,365.6 L 628.0,359.2 L 672.5,355.5 L 672.4,357.7 L 672.5,359.8 L 673.2,363.2 L 676.6,371.1 L 679.0,381.0 L 680.5,387.2 L 682.1,392.0 L 683.5,399.0 L 685.6,405.3 L 688.2,408.7 L 688.7,412.0 L 690.6,412.9 L 690.8,415.0 L 689.0,419.8 L 688.5,423.0 L 688.4,425.0 L 690.0,429.3 L 690.3,434.7 L 689.5,437.1 L 690.2,437.9 L 691.6,438.7 L 691.9,441.6 L 686.3,441.3 L 679.6,441.9 L 654.0,444.8 L 643.6,446.2 L 643.4,449.1 L 645.2,450.9 L 647.7,452.8 L 648.3,460.8 L 642.8,463.3 L 640.0,463.0 L 642.8,461.1 L 642.8,460.1 L 639.7,454.1 L 637.4,453.5 L 636.0,457.8 L 634.7,460.6 L 634.1,460.4 L 631.3,460.4 z" />
  <path id="LA" d="M 608.0,459.2 L 604.7,456.0 L 605.7,450.5 L 605.0,449.6 L 595.8,450.6 L 570.7,451.1 L 570.1,448.7 L 571.0,440.2 L 574.3,434.3 L 579.3,425.6 L 578.7,423.2 L 580.0,422.5 L 580.5,420.5 L 578.2,418.5 L 578.1,416.6 L 576.2,412.2 L 576.1,405.9 L 520.6,406.8 L 520.6,416.4 L 521.3,425.7 L 522.0,429.6 L 524.5,433.7 L 525.4,438.8 L 529.8,444.3 L 530.0,447.5 L 530.7,448.1 L 530.0,456.6 L 527.0,461.6 L 528.6,463.7 L 528.0,466.2 L 527.3,473.5 L 525.9,476.7 L 526.0,480.3 L 530.7,478.8 L 542.8,479.0 L 553.2,482.6 L 559.6,483.7 L 563.3,482.3 L 566.6,483.4 L 569.8,484.4 L 570.6,482.3 L 567.4,481.1 L 564.8,481.6 L 562.1,480.0 C 562.1,480.0 562.2,478.7 562.9,478.5 C 563.5,478.4 565.9,477.6 565.9,477.6 L 567.7,479.0 L 569.5,478.1 L 572.7,478.7 L 574.2,481.1 L 574.5,483.4 L 579.0,483.7 L 580.8,485.5 L 580.0,487.1 L 578.7,487.9 L 580.3,489.5 L 588.7,493.1 L 592.3,491.8 L 593.3,489.4 L 595.8,488.7 L 597.6,487.3 L 598.9,488.2 L 599.7,491.1 L 597.5,492.0 L 598.1,492.6 L 601.5,491.3 L 603.8,487.9 L 604.6,487.4 L 602.5,487.1 L 603.3,485.5 L 603.1,484.0 L 605.2,483.5 L 606.4,482.3 L 607.0,483.1 C 607.0,483.1 606.8,486.1 607.6,486.1 C 608.5,486.1 611.8,486.8 611.8,486.8 L 615.9,488.7 L 616.9,490.2 L 619.8,490.2 L 620.9,491.1 L 623.2,488.1 L 623.2,486.6 L 621.9,486.6 L 618.5,483.9 L 612.7,483.1 L 609.4,480.8 L 610.6,478.1 L 612.8,478.4 L 613.0,477.7 L 611.2,476.8 L 611.2,476.3 L 614.4,476.3 L 616.2,473.2 L 614.9,471.3 L 614.6,468.5 L 613.1,468.7 L 611.2,470.8 L 610.6,473.4 L 607.5,472.7 L 606.5,470.9 L 608.3,469.0 L 610.2,465.6 L 609.1,463.1 L 608.0,459.2 z" />
  <path id="MS" d="M 631.6,459.3 L 631.3,460.6 L 626.1,460.6 L 624.7,459.8 L 622.6,459.5 L 615.8,461.4 L 614.0,460.6 L 611.4,464.8 L 610.3,465.6 L 609.2,463.1 L 608.1,459.2 L 604.6,456.0 L 605.8,450.5 L 605.1,449.5 L 603.2,449.8 L 595.3,450.6 L 570.8,451.0 L 570.0,448.8 L 570.9,440.4 L 574.0,434.7 L 579.2,425.6 L 578.8,423.2 L 580.0,422.5 L 580.5,420.6 L 578.1,418.5 L 578.0,416.4 L 576.2,412.3 L 576.1,406.3 L 577.4,403.8 L 577.2,400.4 L 575.4,397.3 L 576.9,395.8 L 575.4,393.3 L 575.8,391.7 L 577.4,385.2 L 579.9,383.1 L 579.3,380.7 L 582.9,375.4 L 585.7,374.1 L 585.5,372.4 L 585.2,370.7 L 588.1,365.2 L 590.5,363.9 L 590.6,363.0 L 627.9,359.2 L 628.1,365.4 L 628.3,382.1 L 627.5,413.1 L 627.3,427.2 L 630.1,445.9 L 631.6,459.3 z" />
  <path id="IA" d="M 569.2,199.6 L 569.5,202.4 L 571.7,202.9 L 572.6,204.2 L 573.1,206.0 L 576.9,209.4 L 577.6,211.8 L 576.9,215.2 L 575.4,218.4 L 574.6,221.2 L 572.4,222.8 L 570.7,223.4 L 565.1,225.2 L 563.7,229.1 L 564.4,230.4 L 566.3,232.1 L 566.0,236.2 L 564.2,237.7 L 563.4,239.3 L 563.6,242.1 L 561.7,242.6 L 560.1,243.7 L 559.8,245.0 L 560.1,247.1 L 558.5,248.3 L 556.0,245.1 L 554.8,242.7 L 489.0,245.2 L 488.1,245.4 L 486.1,240.8 L 485.8,234.2 L 484.2,230.1 L 483.6,224.8 L 481.3,221.2 L 480.4,216.4 L 477.6,208.8 L 476.5,203.5 L 475.1,201.3 L 473.5,198.5 L 475.5,193.7 L 476.8,188.0 L 474.1,185.9 L 473.6,183.2 L 474.5,180.7 L 476.3,180.7 L 558.9,179.4 L 559.7,183.6 L 562.0,185.1 L 562.3,186.6 L 560.2,190.0 L 560.4,193.2 L 562.9,197.0 L 565.5,198.2 L 568.5,198.8 L 569.2,199.6 z" />
  <path id="MN" d="M 475.2,128.8 L 474.8,120.4 L 473.0,113.0 L 471.1,99.6 L 470.7,89.7 L 468.8,86.3 L 467.2,81.3 L 467.2,71.0 L 467.9,67.1 L 466.1,61.6 L 496.2,61.7 L 496.6,53.4 L 497.2,53.3 L 499.5,53.8 L 501.4,54.6 L 502.2,60.1 L 503.7,66.2 L 505.3,67.8 L 510.1,67.8 L 510.5,69.3 L 516.8,69.6 L 516.8,71.7 L 521.6,71.7 L 521.9,70.4 L 523.1,69.3 L 525.3,68.6 L 526.6,69.6 L 529.5,69.6 L 533.4,72.2 L 538.8,74.6 L 541.2,75.1 L 541.7,74.1 L 543.1,73.6 L 543.6,76.6 L 546.2,77.8 L 546.7,77.4 L 548.0,77.5 L 548.0,79.6 L 550.6,80.6 L 553.6,80.6 L 555.2,79.8 L 558.5,76.6 L 561.1,76.1 L 561.9,77.8 L 562.4,79.1 L 563.3,79.1 L 564.3,78.3 L 573.2,78.0 L 575.0,81.1 L 575.6,81.1 L 576.3,80.0 L 580.8,79.6 L 580.2,81.9 L 576.2,83.7 L 567.0,87.8 L 562.2,89.8 L 559.1,92.4 L 556.7,96.0 L 554.4,99.8 L 552.7,100.6 L 548.1,105.7 L 546.8,105.8 L 542.5,108.6 L 540.0,111.8 L 539.8,115.0 L 539.9,123.0 L 538.5,124.7 L 533.5,128.5 L 531.2,134.4 L 534.1,136.7 L 534.8,139.9 L 532.9,143.1 L 533.1,146.9 L 533.5,153.6 L 536.5,156.6 L 539.8,156.6 L 541.7,159.8 L 545.1,160.3 L 548.9,165.9 L 556.0,170.0 L 558.2,172.9 L 558.8,179.4 L 477.6,180.5 L 477.3,144.8 L 476.8,141.9 L 472.7,138.4 L 471.6,136.6 L 471.6,135.0 L 473.6,133.4 L 475.0,132.0 L 475.2,128.8 z" />
  <path id="OK" d="M 380.3,320.8 L 363.7,319.5 L 362.8,330.5 L 383.2,331.7 L 415.3,333.0 L 413.0,357.4 L 412.5,375.2 L 412.7,376.8 L 417.1,380.5 L 419.1,381.6 L 419.8,381.4 L 420.5,379.3 L 421.9,381.2 L 423.9,381.2 L 423.9,379.8 L 426.7,381.2 L 426.2,385.0 L 430.3,385.3 L 432.9,386.4 L 437.0,387.1 L 439.5,388.9 L 441.8,386.9 L 445.2,387.6 L 447.7,391.0 L 448.6,391.0 L 448.6,393.3 L 450.9,394.0 L 453.2,391.7 L 455.0,392.4 L 457.5,392.4 L 458.5,394.9 L 464.8,397.0 L 466.1,396.3 L 468.0,392.2 L 469.1,392.2 L 470.2,394.2 L 474.4,394.9 L 478.0,396.3 L 481.0,397.2 L 482.8,396.3 L 483.5,393.8 L 487.9,393.8 L 489.9,394.7 L 492.7,392.6 L 493.8,392.6 L 494.5,394.2 L 498.6,394.2 L 500.2,392.2 L 502.0,392.6 L 504.1,395.1 L 507.3,397.0 L 510.5,397.9 L 512.4,399.0 L 512.0,361.8 L 510.7,350.8 L 510.5,341.9 L 509.1,335.4 L 508.3,328.2 L 508.2,324.4 L 496.1,324.7 L 449.7,324.3 L 404.6,322.2 L 380.3,320.8 z" />
  <path id="TX" d="M 361.5,330.6 L 384.2,331.7 L 415.2,332.8 L 412.9,356.3 L 412.6,374.4 L 412.7,376.5 L 417.0,380.3 L 419.0,381.8 L 420.2,381.2 L 420.6,379.4 L 421.7,381.2 L 423.8,381.2 L 423.8,379.8 L 425.5,380.7 L 426.6,381.2 L 426.3,385.1 L 430.4,385.2 L 433.3,386.4 L 437.2,386.9 L 439.6,389.0 L 441.7,386.9 L 445.5,387.6 L 447.7,390.8 L 448.8,391.1 L 448.6,393.1 L 450.8,393.9 L 453.1,391.8 L 455.3,392.4 L 457.5,392.5 L 458.4,394.9 L 464.8,397.0 L 466.4,396.2 L 467.9,392.1 L 468.2,392.1 L 469.1,392.1 L 470.3,394.2 L 474.3,394.9 L 477.6,396.0 L 481.0,397.2 L 482.9,396.2 L 483.6,393.7 L 488.0,393.8 L 489.8,394.7 L 492.6,392.6 L 493.7,392.6 L 494.6,394.2 L 498.6,394.2 L 500.2,392.2 L 502.0,392.6 L 504.0,395.0 L 507.5,397.1 L 510.4,397.9 L 511.9,398.7 L 514.3,400.7 L 517.4,399.3 L 520.1,400.5 L 520.6,406.6 L 520.6,416.3 L 521.3,425.8 L 522.0,429.4 L 524.6,433.8 L 525.5,438.8 L 529.8,444.3 L 530.0,447.5 L 530.7,448.3 L 530.0,456.6 L 527.1,461.6 L 528.6,463.8 L 528.0,466.1 L 527.3,473.5 L 525.8,476.9 L 526.1,480.4 L 520.5,482.0 L 510.6,486.5 L 509.6,488.4 L 507.0,490.4 L 504.9,491.8 L 503.6,492.6 L 498.0,498.0 L 495.2,500.1 L 489.9,503.3 L 484.2,505.7 L 477.9,509.1 L 476.2,510.6 L 470.3,514.1 L 466.9,514.8 L 463.1,520.3 L 459.0,520.6 L 458.1,522.5 L 460.3,524.5 L 458.9,530.0 L 457.6,534.5 L 456.4,538.4 L 455.6,542.9 L 456.4,545.3 L 458.2,552.3 L 459.2,558.4 L 461.0,561.2 L 460.0,562.6 L 456.9,564.6 L 451.3,560.7 L 445.8,559.6 L 444.5,560.0 L 441.2,559.4 L 437.0,556.3 L 431.9,555.2 L 424.3,551.8 L 422.2,547.9 L 420.9,541.5 L 417.6,539.5 L 417.0,537.3 L 417.6,536.6 L 418.0,533.2 L 416.7,532.6 L 416.0,531.6 L 417.3,527.2 L 415.7,525.0 L 412.5,523.7 L 409.1,519.3 L 405.5,512.7 L 401.3,510.1 L 401.5,508.2 L 396.1,495.9 L 395.3,491.7 L 393.6,489.7 L 393.4,488.3 L 387.4,482.9 L 384.8,479.9 L 384.8,478.7 L 382.2,476.6 L 375.4,475.5 L 368.0,474.9 L 364.9,472.6 L 360.4,474.4 L 356.9,475.8 L 354.6,479.1 L 353.6,482.8 L 349.3,488.9 L 346.8,491.3 L 344.2,490.4 L 342.5,489.2 L 340.5,488.6 L 336.6,486.3 L 336.6,485.7 L 334.9,483.7 L 329.7,481.6 L 322.3,473.9 L 320.0,469.2 L 320.0,461.1 L 316.8,454.6 L 316.3,451.9 L 314.7,450.9 L 313.5,448.8 L 308.5,446.7 L 307.2,445.1 L 300.1,437.2 L 298.8,434.0 L 294.1,431.7 L 292.7,427.3 L 290.1,424.4 L 288.1,423.9 L 287.5,419.3 L 295.5,419.9 L 324.5,422.7 L 353.6,424.3 L 355.8,404.8 L 359.7,349.3 L 361.3,330.5 L 362.7,330.5 M 461.7,560.2 L 461.1,553.1 L 458.4,545.9 L 457.8,538.9 L 459.3,530.6 L 462.7,523.8 L 466.1,518.3 L 469.3,514.8 L 469.9,515.0 L 465.2,521.7 L 460.8,528.2 L 458.8,534.8 L 458.5,540.0 L 459.3,546.1 L 461.9,553.3 L 462.4,558.5 L 462.6,560.0 L 461.7,560.2 z" />
  <path id="NM" d="M 288.2,424.0 L 287.4,419.3 L 296.0,419.8 L 326.2,422.7 L 353.5,424.4 L 355.7,405.7 L 359.5,349.8 L 361.3,330.5 L 362.8,330.6 L 363.7,319.4 L 259.7,308.8 L 242.2,429.2 L 257.6,431.2 L 258.9,421.2 L 288.2,424.0 z" />
  <path id="KS" d="M 507.9,324.4 L 495.3,324.6 L 449.2,324.1 L 404.6,322.1 L 380.0,320.8 L 383.9,256.2 L 406.0,256.9 L 446.3,257.7 L 490.6,258.7 L 495.6,258.7 L 497.8,260.9 L 499.9,260.9 L 501.5,261.9 L 501.4,264.9 L 499.6,266.6 L 499.3,268.8 L 501.1,272.2 L 504.1,275.4 L 506.4,277.1 L 507.7,288.3 L 507.9,324.4 z" />
  <path id="NE" d="M 486.1,240.7 L 489.3,247.7 L 489.2,250.0 L 492.7,255.5 L 495.4,258.7 L 490.3,258.7 L 446.8,257.7 L 406.1,256.8 L 383.8,256.1 L 384.9,234.7 L 352.6,231.8 L 356.9,187.8 L 372.5,188.8 L 392.6,190.0 L 410.4,191.1 L 434.2,192.3 L 444.9,191.8 L 447.0,194.1 L 451.8,197.1 L 452.9,198.0 L 457.3,196.6 L 461.2,196.1 L 463.9,195.9 L 465.7,197.3 L 469.8,198.9 L 472.8,200.5 L 473.2,202.1 L 474.1,204.1 L 476.0,204.1 L 476.8,204.2 L 477.7,208.9 L 480.6,217.3 L 481.1,221.1 L 483.7,224.9 L 484.2,230.0 L 485.8,234.2 L 486.1,240.7 z" />
  <path id="SD" d="M 476.4,204.0 L 476.4,203.4 L 473.5,198.6 L 475.4,193.9 L 476.9,188.0 L 474.1,185.9 L 473.7,183.2 L 474.5,180.6 L 477.7,180.6 L 477.5,175.6 L 477.2,145.5 L 476.6,141.7 L 472.5,138.4 L 471.5,136.7 L 471.5,135.1 L 473.5,133.5 L 475.0,131.9 L 475.3,129.2 L 417.0,127.6 L 362.2,124.2 L 356.9,187.9 L 371.5,188.8 L 391.4,190.0 L 409.2,190.9 L 433.0,192.2 L 444.9,191.8 L 446.9,194.0 L 452.1,197.3 L 452.9,198.0 L 457.4,196.5 L 463.9,195.9 L 465.6,197.3 L 469.8,198.9 L 472.8,200.5 L 473.2,202.0 L 474.2,204.2 L 476.4,204.0 z" />
  <path id="ND" d="M 475.3,128.9 L 474.7,120.5 L 473.0,113.7 L 471.1,100.6 L 470.7,89.7 L 468.9,86.6 L 467.2,81.4 L 467.2,70.9 L 467.8,67.1 L 466.0,61.6 L 437.3,61.1 L 418.8,60.4 L 392.2,59.1 L 369.3,57.0 L 362.3,124.2 L 417.2,127.5 L 475.3,128.9 z" />
  <path id="WY" d="M 360.4,143.3 L 253.6,129.8 L 239.6,218.3 L 352.8,231.9 L 360.4,143.3 z" />
  <path id="MT" d="M 369.2,57.0 L 338.5,54.2 L 309.3,50.6 L 280.0,46.6 L 247.7,41.2 L 229.3,37.8 L 196.5,30.9 L 192.1,52.2 L 195.5,59.8 L 194.1,64.4 L 195.9,68.9 L 199.1,70.3 L 203.8,81.1 L 206.5,84.3 L 206.9,85.4 L 210.3,86.5 L 210.8,88.6 L 203.7,106.2 L 203.7,108.7 L 206.2,111.9 L 207.1,111.9 L 211.9,108.9 L 212.6,107.8 L 214.2,108.5 L 214.0,113.7 L 216.7,126.3 L 219.7,128.8 L 220.6,129.5 L 222.5,131.8 L 222.0,135.2 L 222.7,138.7 L 223.8,139.6 L 226.1,137.3 L 228.9,137.3 L 232.1,138.9 L 234.6,138.0 L 238.7,138.0 L 242.3,139.6 L 245.1,139.1 L 245.5,136.2 L 248.5,135.5 L 249.9,136.8 L 250.3,140.0 L 251.8,140.9 L 253.7,129.8 L 360.4,143.3 L 369.2,57.0 z" />
  <path id="CO" d="M 380.0,321.0 L 384.9,234.6 L 271.5,222.0 L 259.3,309.9 L 380.0,321.0 z" />
  <path id="ID" d="M 148.5,176.5 L 157.2,141.3 L 158.6,137.0 L 161.1,131.1 L 159.9,128.8 L 157.4,128.9 L 156.6,127.9 L 157.0,126.7 L 157.4,123.7 L 161.8,118.2 L 163.7,117.7 L 164.8,116.6 L 165.4,113.4 L 166.3,112.7 L 170.2,106.9 L 174.1,102.5 L 174.3,98.7 L 170.9,96.1 L 169.3,91.7 L 182.9,28.4 L 196.5,30.9 L 192.1,52.3 L 195.6,59.8 L 194.0,64.4 L 196.0,69.1 L 199.1,70.3 L 203.0,79.9 L 206.5,84.3 L 207.0,85.5 L 210.3,86.6 L 210.7,88.7 L 203.7,106.1 L 203.6,108.6 L 206.2,112.0 L 207.1,111.9 L 212.0,108.9 L 212.7,107.8 L 214.3,108.5 L 214.0,113.8 L 216.7,126.4 L 220.6,129.6 L 222.3,131.7 L 221.6,135.8 L 222.7,138.6 L 223.7,139.7 L 226.2,137.4 L 229.1,137.4 L 232.0,138.7 L 234.8,138.1 L 238.5,137.9 L 242.5,139.5 L 245.3,139.2 L 245.8,136.2 L 248.7,135.4 L 250.0,136.9 L 250.4,139.9 L 251.8,141.1 L 243.4,194.7 C 243.4,194.7 155.5,178.0 148.5,176.5 z" />
  <path id="UT" d="M 259.5,310.1 L 175.7,298.2 L 196.3,185.7 L 243.1,194.4 L 241.6,205.1 L 239.3,218.2 L 247.1,219.2 L 263.5,221.0 L 271.7,221.8 L 259.5,310.1 z" />
  <path id="AZ" d="M 144.9,382.6 L 142.3,384.8 L 142.0,386.2 L 142.4,387.2 L 161.4,397.9 L 173.5,405.5 L 188.2,414.0 L 205.0,424.1 L 217.3,426.5 L 242.2,429.2 L 259.5,310.1 L 175.8,298.2 L 172.7,314.6 L 171.1,314.6 L 169.4,317.2 L 166.8,317.1 L 165.6,314.4 L 162.8,314.0 L 161.9,312.9 L 161.0,312.9 L 160.1,313.4 L 158.1,314.5 L 158.0,321.4 L 157.8,323.2 L 157.2,335.7 L 155.7,337.9 L 155.2,341.2 L 157.9,346.1 L 159.2,352.0 L 160.0,353.0 L 161.0,353.6 L 160.9,355.9 L 159.3,357.2 L 155.9,358.9 L 153.9,360.9 L 152.4,364.5 L 151.9,369.5 L 149.0,372.2 L 146.9,372.9 L 147.1,373.7 L 146.6,375.4 L 147.1,376.2 L 150.7,376.8 L 150.2,379.5 L 148.7,381.7 L 144.9,382.6 z" />
  <path id="NV" d="M 196.4,185.6 L 172.8,314.4 L 170.9,314.7 L 169.3,317.2 L 167.0,317.2 L 165.5,314.4 L 162.9,314.0 L 162.1,312.9 L 161.1,312.9 L 158.3,314.5 L 158.0,321.3 L 157.6,327.1 L 157.3,335.7 L 155.8,337.8 L 153.4,336.7 L 84.3,232.5 L 103.3,164.9 L 196.4,185.6 z" />
  <path id="OR" d="M 148.7,175.5 L 157.6,140.7 L 158.6,136.5 L 161.0,130.9 L 160.4,129.7 L 157.8,129.7 L 156.6,128.0 L 157.0,126.5 L 157.5,123.3 L 162.0,117.8 L 163.8,116.7 L 165.0,115.6 L 166.4,112.0 L 170.5,106.3 L 174.1,102.5 L 174.3,99.0 L 171.0,96.5 L 169.2,91.9 L 156.6,88.3 L 141.5,84.7 L 126.0,84.9 L 125.6,83.5 L 120.1,85.5 L 115.6,85.0 L 113.2,83.4 L 112.0,84.1 L 107.3,83.8 L 105.6,82.5 L 100.3,80.4 L 99.5,80.5 L 95.2,79.0 L 93.2,80.9 L 87.1,80.5 L 81.1,76.4 L 81.8,75.6 L 82.0,67.8 L 79.7,63.9 L 75.6,63.4 L 74.9,60.9 L 72.6,60.4 L 66.8,62.4 L 64.5,68.9 L 61.3,78.9 L 58.1,85.4 L 53.1,99.5 L 46.6,113.0 L 38.5,125.7 L 36.6,128.6 L 35.8,137.1 L 36.1,149.2 L 148.7,175.5 z" />
  <path id="WA" d="M 102.1,7.6 L 106.4,9.1 L 116.1,11.8 L 124.7,13.8 L 144.8,19.4 L 167.7,25.1 L 182.9,28.3 L 169.3,91.9 L 156.9,88.3 L 141.3,84.8 L 126.1,84.8 L 125.7,83.5 L 120.1,85.6 L 115.5,84.9 L 113.3,83.3 L 112.0,84.0 L 107.3,83.8 L 105.6,82.5 L 100.3,80.4 L 99.6,80.5 L 95.2,79.0 L 93.3,80.8 L 87.0,80.5 L 81.1,76.4 L 81.9,75.5 L 82.0,67.8 L 79.7,63.9 L 75.6,63.3 L 74.9,60.8 L 72.6,60.4 L 69.1,61.6 L 66.8,58.4 L 67.2,55.5 L 69.9,55.1 L 71.5,51.1 L 68.9,50.0 L 69.1,46.2 L 73.5,45.6 L 70.7,42.9 L 69.3,35.7 L 69.9,32.8 L 69.9,24.9 L 68.1,21.7 L 70.4,12.3 L 72.5,12.8 L 74.9,15.7 L 77.7,18.3 L 80.9,20.2 L 85.4,22.3 L 88.5,23.0 L 91.4,24.4 L 94.8,25.4 L 97.1,25.2 L 97.1,22.8 L 98.4,21.7 L 100.5,20.4 L 100.8,21.5 L 101.1,23.3 L 98.8,23.8 L 98.5,25.9 L 100.3,27.3 L 101.4,29.8 L 102.1,31.7 L 103.5,31.5 L 103.7,30.2 L 102.7,29.0 L 102.2,25.7 L 103.0,23.9 L 102.4,22.5 L 102.4,20.2 L 104.2,16.7 L 103.0,14.1 L 100.6,9.2 L 100.9,8.4 L 102.1,7.6 z M 92.6,13.6 L 94.6,13.4 L 95.1,14.8 L 96.7,13.2 L 99.0,13.2 L 99.8,14.7 L 98.3,16.4 L 98.9,17.2 L 98.2,19.2 L 96.8,19.7 C 96.8,19.7 95.9,19.7 95.9,19.4 C 95.9,19.1 97.4,16.8 97.4,16.8 L 95.7,16.3 L 95.4,17.7 L 94.6,18.4 L 93.1,16.1 L 92.6,13.6 z" />
  <path id="CA" d="M 144.7,382.2 L 148.6,381.7 L 150.1,379.7 L 150.7,376.8 L 147.1,376.2 L 146.6,375.5 L 147.1,373.5 L 146.9,372.9 L 148.8,372.3 L 151.9,369.4 L 152.5,364.4 L 153.8,361.0 L 155.8,358.9 L 159.3,357.3 L 161.0,355.7 L 161.0,353.6 L 160.0,353.0 L 159.0,351.9 L 157.9,346.1 L 155.2,341.2 L 155.7,337.7 L 153.3,336.7 L 84.3,232.5 L 103.2,164.9 L 36.1,149.2 L 34.6,153.9 L 34.4,161.4 L 29.2,173.2 L 26.2,175.8 L 25.8,176.9 L 24.1,177.7 L 22.6,181.9 L 21.8,185.1 L 24.6,189.4 L 26.2,193.6 L 27.3,197.1 L 27.0,203.6 L 25.2,206.6 L 24.6,212.5 L 23.6,216.2 L 25.4,220.1 L 28.1,224.6 L 30.4,229.4 L 31.7,233.5 L 31.3,236.7 L 31.0,237.2 L 31.0,239.3 L 36.7,245.6 L 36.2,248.0 L 35.5,250.3 L 34.9,252.2 L 35.1,260.5 L 37.2,264.2 L 39.1,266.8 L 41.8,267.3 L 42.8,270.0 L 41.7,273.6 L 39.6,275.2 L 38.5,275.2 L 37.6,279.1 L 38.1,282.0 L 41.4,286.3 L 43.0,291.7 L 44.4,296.4 L 45.7,299.4 L 49.1,305.3 L 50.6,307.8 L 51.1,310.8 L 52.7,311.7 L 52.7,314.2 L 51.9,316.1 L 50.1,323.2 L 49.6,325.1 L 52.0,327.9 L 56.2,328.4 L 60.8,330.2 L 64.6,332.3 L 67.6,332.3 L 70.5,335.3 L 73.0,340.2 L 74.2,342.4 L 78.1,344.5 L 82.9,345.4 L 84.4,347.5 L 85.0,350.7 L 83.6,351.3 L 83.9,352.3 L 87.1,353.1 L 89.9,353.3 L 93.0,351.6 L 96.9,355.8 L 97.7,358.1 L 100.3,362.3 L 100.6,365.5 L 100.6,374.9 L 101.1,376.6 L 111.1,378.1 L 130.8,380.8 L 144.7,382.2 z M 56.6,338.5 L 57.9,340.0 L 57.7,341.3 L 54.5,341.2 L 53.9,340.0 L 53.2,338.6 L 56.6,338.5 z M 58.5,338.5 L 59.7,337.8 L 63.3,339.9 L 66.3,341.1 L 65.5,341.8 L 60.9,341.6 L 59.3,339.9 L 58.5,338.5 z M 79.2,358.3 L 81.0,360.6 L 81.8,361.6 L 83.3,362.2 L 83.9,360.7 L 82.9,358.9 L 80.2,356.9 L 79.2,357.1 L 79.2,358.3 z M 77.7,366.9 L 79.5,370.1 L 80.7,372.0 L 79.3,372.3 L 78.0,371.1 C 78.0,371.1 77.3,369.6 77.3,369.2 C 77.3,368.8 77.3,367.0 77.3,367.0 L 77.7,366.9 z" />
</svg>